<?xml version="1.0" encoding="UTF-8"?>
<svg width="10px" height="16px" viewBox="0 0 10 16" version="1.1" xmlns="http://www.w3.org/2000/svg" xmlns:xlink="http://www.w3.org/1999/xlink">
    <!-- Generator: Sketch 42 (36781) - http://www.bohemiancoding.com/sketch -->
    <title>Expand Arrow_000000</title>
    <desc>Created with Sketch.</desc>
    <defs></defs>
    <g id="Page-1" stroke="none" stroke-width="1" fill="none" fill-rule="evenodd">
        <g id="PRODUCT-PAGE" transform="translate(-1303.000000, -2759.000000)" fill-rule="nonzero" fill="#FFFFFF">
            <g id="footer" transform="translate(153.000000, 2664.000000)">
                <g id="公众号按钮" transform="translate(969.000000, 82.000000)">
                    <g id="Expand-Arrow_000000" transform="translate(186.000000, 21.000000) rotate(-90.000000) translate(-186.000000, -21.000000) translate(178.000000, 16.000000)">
                        <g id="surface1" transform="translate(0.000000, 0.000000)">
                            <path d="M15.090224,0.42798501 C14.9962873,0.431203821 14.9065565,0.476264296 14.8406603,0.555120023 L7.91596502,8.50346592 L0.991269727,0.555120023 C0.923971616,0.474654684 0.831436893,0.431203821 0.734695948,0.42959421 C0.587481062,0.431203821 0.457091061,0.532589579 0.401009302,0.687082634 C0.346329497,0.8431853 0.378576599,1.02020839 0.483729987,1.13768738 L7.66219515,9.37731695 C7.80239955,9.53824722 8.02953049,9.53824722 8.16973489,9.37731695 L15.3482001,1.13768738 C15.4547554,1.02020839 15.4870025,0.838357289 15.4309207,0.682255035 C15.373437,0.526152369 15.2388408,0.424766611 15.090224,0.42798501 Z" id="Shape"></path>
                        </g>
                    </g>
                </g>
            </g>
        </g>
    </g>
</svg>