<?xml version="1.0" encoding="UTF-8"?>
<svg width="22px" height="26px" viewBox="0 0 22 26" version="1.1" xmlns="http://www.w3.org/2000/svg" xmlns:xlink="http://www.w3.org/1999/xlink">
    <!-- Generator: Sketch 42 (36781) - http://www.bohemiancoding.com/sketch -->
    <title>Shape</title>
    <desc>Created with Sketch.</desc>
    <defs></defs>
    <g id="Page-1" stroke="none" stroke-width="1" fill="none" fill-rule="evenodd">
        <g id="PRODUCT-PAGE" transform="translate(-1233.000000, -66.000000)" stroke="#AB956E" fill-rule="nonzero" fill="#AB956E">
            <g id="header" transform="translate(-3.000000, 42.000000)">
                <g id="Shopping-Bag" transform="translate(1236.000000, 25.000000)">
                    <path d="M11.0769231,0 C8.54206708,0 6.46153846,2.08052862 6.46153846,4.61538462 L6.46153846,5.53846154 L1.90384615,5.53846154 L1.84615385,6.40384615 L0.923076923,23.0192308 L0.865384615,24 L21.2884615,24 L21.2307692,23.0192308 L20.3076923,6.40384615 L20.25,5.53846154 L15.6923077,5.53846154 L15.6923077,4.61538462 C15.6923077,2.08052862 13.6117791,0 11.0769231,0 Z M11.0769231,1.84615385 C12.6057692,1.84615385 13.8461538,3.08653846 13.8461538,4.61538462 L13.8461538,5.53846154 L8.30769231,5.53846154 L8.30769231,4.61538462 C8.30769231,3.08653846 9.54807692,1.84615385 11.0769231,1.84615385 Z M3.63461538,7.38461538 L6.46153846,7.38461538 L6.46153846,10.1538462 L8.30769231,10.1538462 L8.30769231,7.38461538 L13.8461538,7.38461538 L13.8461538,10.1538462 L15.6923077,10.1538462 L15.6923077,7.38461538 L18.5192308,7.38461538 L19.3269231,22.1538462 L2.82692308,22.1538462 L3.63461538,7.38461538 Z" id="Shape"></path>
                </g>
            </g>
        </g>
    </g>
</svg>