<?xml version="1.0" encoding="UTF-8"?>
<svg width="12px" height="12px" viewBox="0 0 12 12" version="1.1" xmlns="http://www.w3.org/2000/svg" xmlns:xlink="http://www.w3.org/1999/xlink">
    <!-- Generator: Sketch 42 (36781) - http://www.bohemiancoding.com/sketch -->
    <title>surface1</title>
    <desc>Created with Sketch.</desc>
    <defs></defs>
    <g id="Page-1" stroke="none" stroke-width="1" fill="none" fill-rule="evenodd">
        <g id="PRODUCT-PAGE手机版效果展示" transform="translate(-299.000000, -21.000000)" fill-rule="nonzero" fill="#AAAAAA">
            <g id="搜索页面从上面滑下来">
                <g id="输入字后才显示" transform="translate(299.000000, 21.000000)">
                    <g id="surface1">
                        <path d="M5.91346154,0 C2.64843738,0 0,2.64843738 0,5.91346154 C0,9.17848569 2.64843738,11.8269231 5.91346154,11.8269231 C9.17848569,11.8269231 11.8269231,9.17848569 11.8269231,5.91346154 C11.8269231,2.64843738 9.17848569,0 5.91346154,0 Z M8.58173077,7.94170662 L7.93990385,8.58173077 C7.82271646,8.69891815 7.63161046,8.69891815 7.51442308,8.58173077 L5.91346154,6.98076923 L4.3125,8.58173077 C4.19531262,8.69891815 4.00420662,8.69891815 3.88701923,8.579928 L3.24519231,7.94170662 C3.12980769,7.82271646 3.12980769,7.63341369 3.24519231,7.51442308 L4.84615385,5.91346154 L3.24699508,4.31430277 C3.12980769,4.19531262 3.12980769,4.00420662 3.24699508,3.88701923 L3.88701923,3.24699508 C4.00420662,3.12800492 4.19711538,3.12800492 4.31430277,3.24699508 L5.91346154,4.84615385 L7.51442308,3.24699508 C7.63161046,3.12800492 7.82451923,3.12800492 7.93990385,3.24699508 L8.58173077,3.88521646 C8.69891815,4.00420662 8.69891815,4.19531262 8.58173077,4.31430277 L6.98076923,5.91346154 L8.58173077,7.51442308 C8.69711538,7.63341369 8.69711538,7.82271646 8.58173077,7.94170662 Z" id="Shape"></path>
                    </g>
                </g>
            </g>
        </g>
    </g>
</svg>