<?xml version="1.0" encoding="UTF-8"?>
<svg width="23px" height="25px" viewBox="0 0 23 25" version="1.1" xmlns="http://www.w3.org/2000/svg" xmlns:xlink="http://www.w3.org/1999/xlink">
    <!-- Generator: Sketch 42 (36781) - http://www.bohemiancoding.com/sketch -->
    <title>Register</title>
    <desc>Created with Sketch.</desc>
    <defs></defs>
    <g id="Page-1" stroke="none" stroke-width="1" fill="none" fill-rule="evenodd">
        <g id="PRODUCT-PAGE" transform="translate(-1135.000000, -66.000000)" stroke="#555555" fill-rule="nonzero" fill="#555555">
            <g id="header" transform="translate(-3.000000, 42.000000)">
                <g id="Register" transform="translate(1139.000000, 25.000000)">
                    <path d="M10.5982906,0 C6.51215251,0 3.17948718,3.33266533 3.17948718,7.41880342 C3.17948718,9.97315679 4.48357398,12.2418534 6.45833333,13.5790598 C2.67855262,15.2019231 0,18.9527249 0,23.3162393 L2.11965812,23.3162393 C2.11965812,18.6215283 5.90357959,14.8376068 10.5982906,14.8376068 C15.2930027,14.8376068 19.0769231,18.6215283 19.0769231,23.3162393 L21.1965812,23.3162393 C21.1965812,18.9527249 18.5180286,15.2019231 14.7382479,13.5790598 C16.7130072,12.2418534 18.017094,9.97315679 18.017094,7.41880342 C18.017094,3.33266533 14.6844287,0 10.5982906,0 Z M10.5982906,2.11965812 C13.5376608,2.11965812 15.8974359,4.47943429 15.8974359,7.41880342 C15.8974359,10.3581736 13.5376608,12.7179487 10.5982906,12.7179487 C7.65892147,12.7179487 5.2991453,10.3581736 5.2991453,7.41880342 C5.2991453,4.47943429 7.65892147,2.11965812 10.5982906,2.11965812 Z" id="Shape"></path>
                </g>
            </g>
        </g>
    </g>
</svg>