<?xml version="1.0" encoding="UTF-8"?>
<svg width="6px" height="11px" viewBox="0 0 6 11" version="1.1" xmlns="http://www.w3.org/2000/svg" xmlns:xlink="http://www.w3.org/1999/xlink">
    <!-- Generator: Sketch 42 (36781) - http://www.bohemiancoding.com/sketch -->
    <title>right arrow copy 2</title>
    <desc>Created with Sketch.</desc>
    <defs></defs>
    <g id="Page-1" stroke="none" stroke-width="1" fill="none" fill-rule="evenodd">
        <g id="PRODUCT-PAGE手机版效果展示" transform="translate(-215.000000, -117.000000)" fill-rule="nonzero" fill="#000000">
            <g id="菜单从左边滑出-米色">
                <g id="上一级菜单">
                    <g id="right-arrow-copy-2" transform="translate(218.000000, 122.500000) rotate(-180.000000) translate(-218.000000, -122.500000) translate(215.000000, 117.000000)">
                        <g id="Expand-Arrow_000000-Copy" transform="translate(3.000000, 5.666667) rotate(-270.000000) translate(-3.000000, -5.666667) translate(-2.000000, 2.666667)">
                            <g id="surface1" transform="translate(-0.000000, 0.000000)">
                                <path d="M9.54279114,0.256793478 C9.48330977,0.258831652 9.42649159,0.287364261 9.38476568,0.337296261 L5,5.3702447 L0.615234318,0.337296261 C0.572620682,0.286345043 0.514027045,0.258831652 0.45277,0.257812435 C0.3595525,0.258831652 0.276988636,0.323029826 0.241477273,0.420855913 C0.206853636,0.519701217 0.227272727,0.631793478 0.293856591,0.706182 L4.83931114,5.9235733 C4.92808955,6.02547548 5.07191045,6.02547548 5.16068886,5.9235733 L9.70614341,0.706182 C9.773615,0.631793478 9.79403409,0.516644087 9.75852273,0.417799043 C9.72212364,0.318953739 9.63689636,0.254755565 9.54279114,0.256793478 Z" id="Shape"></path>
                            </g>
                        </g>
                    </g>
                </g>
            </g>
        </g>
    </g>
</svg>