<?xml version="1.0" encoding="UTF-8"?>
<svg width="18px" height="26px" viewBox="0 0 18 26" version="1.1" xmlns="http://www.w3.org/2000/svg" xmlns:xlink="http://www.w3.org/1999/xlink">
    <!-- Generator: Sketch 47.1 (45422) - http://www.bohemiancoding.com/sketch -->
    <title>icons8-marker</title>
    <desc>Created with Sketch.</desc>
    <defs></defs>
    <g id="Page-1" stroke="none" stroke-width="1" fill="none" fill-rule="evenodd">
        <g id="我的账户手机版" transform="translate(-15.000000, -201.000000)" stroke="#000000" stroke-width="0.5" fill="#000000" fill-rule="nonzero">
            <g id="icons8-marker" transform="translate(16.000000, 202.000000)">
                <path d="M8,0 C3.580078,0 0,3.580078 0,8 C0,11.654297 1.9296875,15.5820315 3.828125,18.625 C5.7265625,21.667969 7.625,23.828125 7.625,23.828125 C7.720703,23.935547 7.857422,23.998047 8,23.998047 C8.142578,23.998047 8.279297,23.935547 8.375,23.828125 C8.375,23.828125 10.2753905,21.623047 12.171875,18.5625 C14.0683595,15.501953 16,11.5839845 16,8 C16,3.580078 12.419922,0 8,0 Z M8,1 C11.8808595,1 15,4.1191405 15,8 C15,11.216797 13.1816405,15.0410155 11.328125,18.03125 C9.7753905,20.5371095 8.4609375,22.1503905 8,22.703125 C7.5351565,22.154297 6.220703,20.576172 4.671875,18.09375 C2.8203125,15.125 1,11.294922 1,8 C1,4.1191405 4.1191405,1 8,1 Z M8,5 C6.0722655,5 4.5,6.5722655 4.5,8.5 C4.5,10.4277345 6.0722655,12 8,12 C9.9277345,12 11.5,10.4277345 11.5,8.5 C11.5,6.5722655 9.9277345,5 8,5 Z M8,6 C9.386719,6 10.5,7.1132815 10.5,8.5 C10.5,9.886719 9.386719,11 8,11 C6.6132815,11 5.5,9.886719 5.5,8.5 C5.5,7.1132815 6.6132815,6 8,6 Z" id="Shape"></path>
            </g>
        </g>
    </g>
</svg>