<?xml version="1.0" encoding="UTF-8"?>
<svg width="16px" height="18px" viewBox="0 0 16 18" version="1.1" xmlns="http://www.w3.org/2000/svg" xmlns:xlink="http://www.w3.org/1999/xlink">
    <!-- Generator: Sketch 47.1 (45422) - http://www.bohemiancoding.com/sketch -->
    <title>Register</title>
    <desc>Created with Sketch.</desc>
    <defs></defs>
    <g id="Page-1" stroke="none" stroke-width="1" fill="none" fill-rule="evenodd">
        <g id="我的账户手机版" transform="translate(-15.000000, -257.000000)" fill-rule="nonzero" fill="#000000">
            <g id="Register" transform="translate(15.000000, 257.000000)">
                <path d="M7.70784771,0 C4.73611092,0 2.31235431,2.499499 2.31235431,5.56410256 C2.31235431,7.47986759 3.26078108,9.18139003 4.6969697,10.1842949 C1.94803827,11.4014423 0,14.2145437 0,17.4871795 L1.54156954,17.4871795 C1.54156954,13.9661462 4.29351243,11.1282051 7.70784771,11.1282051 C11.1221838,11.1282051 13.8741259,13.9661462 13.8741259,17.4871795 L15.4156954,17.4871795 C15.4156954,14.2145437 13.4676571,11.4014423 10.7187257,10.1842949 C12.1549143,9.18139003 13.1033411,7.47986759 13.1033411,5.56410256 C13.1033411,2.499499 10.6795845,0 7.70784771,0 Z M7.70784771,1.58974359 C9.84557148,1.58974359 11.5617716,3.35957572 11.5617716,5.56410256 C11.5617716,7.76863021 9.84557148,9.53846154 7.70784771,9.53846154 C5.57012471,9.53846154 3.85392385,7.76863021 3.85392385,5.56410256 C3.85392385,3.35957572 5.57012471,1.58974359 7.70784771,1.58974359 Z" id="Shape"></path>
            </g>
        </g>
    </g>
</svg>