<?xml version="1.0" encoding="UTF-8"?>
<svg width="16px" height="17px" viewBox="0 0 16 17" version="1.1" xmlns="http://www.w3.org/2000/svg" xmlns:xlink="http://www.w3.org/1999/xlink">
    <!-- Generator: Sketch 47.1 (45422) - http://www.bohemiancoding.com/sketch -->
    <title>Shopping Bag</title>
    <desc>Created with Sketch.</desc>
    <defs></defs>
    <g id="Page-1" stroke="none" stroke-width="1" fill="none" fill-rule="evenodd">
        <g id="我的账户手机版" transform="translate(-15.000000, -308.000000)" fill-rule="nonzero" fill="#000000">
            <g id="Shopping-Bag" transform="translate(15.000000, 308.000000)">
                <path d="M8.05594406,0 C6.21241242,0 4.6993007,1.47370777 4.6993007,3.26923077 L4.6993007,3.92307692 L1.38461538,3.92307692 L1.34265734,4.53605769 L0.671328671,16.3052885 L0.629370629,17 L15.4825175,17 L15.4405594,16.3052885 L14.7692308,4.53605769 L14.7272727,3.92307692 L11.4125874,3.92307692 L11.4125874,3.26923077 C11.4125874,1.47370777 9.89947569,0 8.05594406,0 Z M8.05594406,1.30769231 C9.16783217,1.30769231 10.0699301,2.18629808 10.0699301,3.26923077 L10.0699301,3.92307692 L6.04195804,3.92307692 L6.04195804,3.26923077 C6.04195804,2.18629808 6.94405594,1.30769231 8.05594406,1.30769231 Z M2.64335664,5.23076923 L4.6993007,5.23076923 L4.6993007,7.19230769 L6.04195804,7.19230769 L6.04195804,5.23076923 L10.0699301,5.23076923 L10.0699301,7.19230769 L11.4125874,7.19230769 L11.4125874,5.23076923 L13.4685315,5.23076923 L14.0559441,15.6923077 L2.05594406,15.6923077 L2.64335664,5.23076923 Z" id="Shape"></path>
            </g>
        </g>
    </g>
</svg>