<?xml version="1.0" encoding="UTF-8"?>
<svg width="17px" height="16px" viewBox="0 0 17 16" version="1.1" xmlns="http://www.w3.org/2000/svg" xmlns:xlink="http://www.w3.org/1999/xlink">
    <!-- Generator: Sketch 47.1 (45422) - http://www.bohemiancoding.com/sketch -->
    <title>wishlist</title>
    <desc>Created with Sketch.</desc>
    <defs></defs>
    <g id="Page-1" stroke="none" stroke-width="1" fill="none" fill-rule="evenodd">
        <g id="我的账户手机版" transform="translate(-15.000000, -357.000000)" fill-rule="nonzero" fill="#000000">
            <g id="wishlist" transform="translate(15.000000, 357.000000)">
                <path d="M12.2386723,1.74545455 C13.9386723,1.74545455 15.3,3.14318225 15.3,4.8886368 C15.3,6.63409135 11.9863286,10.4727273 8.5,13.4386368 C5.0136723,10.3840913 1.7,6.54545455 1.7,4.8886368 C1.7,3.14318225 3.06132855,1.74545455 4.76132855,1.74545455 C6.8,1.74545455 8.5,4.36363636 8.5,4.36363636 C8.5,4.36363636 10.1136723,1.74545455 12.2386723,1.74545455 L12.2386723,1.74545455 Z M12.2386723,0 C10.7113285,0 9.35,0.784091345 8.5,2.00795433 C7.65,0.784091345 6.2886723,0 4.76132855,0 C2.125,0 0,2.18181818 0,4.8886368 C0,8.72727273 8.5,15.7090909 8.5,15.7090909 C8.5,15.7090909 17,8.72727273 17,4.8886368 C17,2.18181818 14.875,0 12.2386723,0 Z" id="Shape"></path>
            </g>
        </g>
    </g>
</svg>