<?xml version="1.0" encoding="UTF-8"?>
<svg width="22px" height="19px" viewBox="0 0 22 19" version="1.1" xmlns="http://www.w3.org/2000/svg" xmlns:xlink="http://www.w3.org/1999/xlink">
    <!-- Generator: Sketch 47.1 (45422) - http://www.bohemiancoding.com/sketch -->
    <title>Weixing_000000</title>
    <desc>Created with Sketch.</desc>
    <defs></defs>
    <g id="Page-1" stroke="none" stroke-width="1" fill="none" fill-rule="evenodd">
        <g id="我的账户手机版" transform="translate(-14.000000, -403.000000)" stroke-width="0.5" stroke="#000000" fill="#000000" fill-rule="nonzero">
            <g id="Weixing_000000" transform="translate(15.000000, 404.000000)">
                <g id="surface1">
                    <path d="M7.59198625,0 C3.45930818,0 0,2.8104217 0,6.40803768 C0,8.35012873 1.02401112,10.0229169 2.60625653,11.1916241 L1.42000868,14.7184618 L5.12354392,12.4483729 C5.88937168,12.6866025 6.73544541,12.8160754 7.59198625,12.8160754 C7.92518245,12.8160754 8.2496559,12.7919073 8.57238543,12.7556546 C9.54755061,14.6304202 11.7578096,15.9096108 14.2907976,15.9096108 C15.0601141,15.9096108 15.7718629,15.7663275 16.4330217,15.5712553 L19.4910988,17.2647587 L18.6380471,14.3697483 C19.7894053,13.4237341 20.5430216,12.1065646 20.5430216,10.6064072 C20.5430216,7.86158524 18.1304027,5.67263271 15.0723256,5.34981389 C14.468735,2.26490987 11.3094778,0 7.59198625,0 Z M7.59198625,0.883867266 C10.8559124,0.883867266 13.5441593,2.80696931 14.158217,5.30838262 C10.800089,5.36880334 8.03857367,7.66996547 8.03857367,10.6064072 C8.03857367,11.0569722 8.11009733,11.4920007 8.23395567,11.9063134 C8.02287344,11.9235767 7.80830203,11.9322081 7.59198625,11.9322081 C6.74416815,11.9322081 5.89460524,11.8044619 5.19506802,11.5593266 L4.99445246,11.4902745 L3.04586603,12.6831501 L3.65643455,10.8688053 L3.37731741,10.6823645 C1.82298372,9.6431302 0.893174852,8.15160419 0.893174852,6.40803768 C0.893174852,3.37664916 3.86577241,0.883867266 7.59198625,0.883867266 Z M4.91246169,3.53546906 C4.42051795,3.53546906 4.01928684,3.93251903 4.01928684,4.41933633 C4.01928684,4.90615407 4.42051795,5.3032036 4.91246169,5.3032036 C5.40440587,5.3032036 5.80563654,4.90615407 5.80563654,4.41933633 C5.80563654,3.93251903 5.40440587,3.53546906 4.91246169,3.53546906 Z M10.2715108,3.53546906 C9.77956707,3.53546906 9.37833595,3.93251903 9.37833595,4.41933633 C9.37833595,4.90615407 9.77956707,5.3032036 10.2715108,5.3032036 C10.763455,5.3032036 11.1646857,4.90615407 11.1646857,4.41933633 C11.1646857,3.93251903 10.763455,3.53546906 10.2715108,3.53546906 Z M14.2907976,6.18707086 C17.3035184,6.18707086 19.6498468,8.19130883 19.6498468,10.6064072 C19.6498468,11.9132186 18.9764769,13.059484 17.8652414,13.8742991 L17.6157808,14.0590137 L18.022245,15.4383301 L16.5708359,14.6321464 L16.3824318,14.6942933 C15.757907,14.9014497 15.0444139,15.0257435 14.2907976,15.0257435 C11.2780769,15.0257435 8.93174852,13.0215056 8.93174852,10.6064072 C8.93174852,8.19130883 11.2780769,6.18707086 14.2907976,6.18707086 Z M12.2811542,8.83867266 C11.9235355,8.83867266 11.6112731,9.14768105 11.6112731,9.50157311 C11.6112731,9.85546517 11.9235355,10.1644736 12.2811542,10.1644736 C12.6387729,10.1644736 12.9510354,9.85546517 12.9510354,9.50157311 C12.9510354,9.14768105 12.6387729,8.83867266 12.2811542,8.83867266 Z M16.3004411,8.83867266 C15.9428223,8.83867266 15.6305599,9.14768105 15.6305599,9.50157311 C15.6305599,9.85546517 15.9428223,10.1644736 16.3004411,10.1644736 C16.6580598,10.1644736 16.9703222,9.85546517 16.9703222,9.50157311 C16.9703222,9.14768105 16.6580598,8.83867266 16.3004411,8.83867266 Z" id="Shape"></path>
                </g>
            </g>
        </g>
    </g>
</svg>