<?xml version="1.0" encoding="UTF-8"?>
<svg width="19px" height="22px" viewBox="0 0 19 22" version="1.1" xmlns="http://www.w3.org/2000/svg" xmlns:xlink="http://www.w3.org/1999/xlink">
    <!-- Generator: Sketch 42 (36781) - http://www.bohemiancoding.com/sketch -->
    <title>Shopping Bag Copy</title>
    <desc>Created with Sketch.</desc>
    <defs></defs>
    <g id="Page-1" stroke="none" stroke-width="1" fill="none" fill-rule="evenodd">
        <g id="PRODUCT-PAGE-Single" transform="translate(-920.000000, -550.000000)" fill-rule="nonzero" fill="#FFFFFF">
            <g id="Group-4" transform="translate(662.000000, 293.000000)">
                <g id="加入购物车" transform="translate(32.000000, 248.000000)">
                    <g id="Shopping-Bag-Copy" transform="translate(226.000000, 9.000000)">
                        <path d="M9.36057692,0 C7.03695892,0 5.12980769,1.90715123 5.12980769,4.23076923 L5.12980769,5.07692308 L0.951923077,5.07692308 L0.899038462,5.87019231 L0.0528846154,21.1009615 L0,22 L18.7211538,22 L18.6682692,21.1009615 L17.8221154,5.87019231 L17.7692308,5.07692308 L13.5913462,5.07692308 L13.5913462,4.23076923 C13.5913462,1.90715123 11.6841949,0 9.36057692,0 Z M9.36057692,1.69230769 C10.7620192,1.69230769 11.8990385,2.82932692 11.8990385,4.23076923 L11.8990385,5.07692308 L6.82211538,5.07692308 L6.82211538,4.23076923 C6.82211538,2.82932692 7.95913462,1.69230769 9.36057692,1.69230769 Z M2.53846154,6.76923077 L5.12980769,6.76923077 L5.12980769,9.30769231 L6.82211538,9.30769231 L6.82211538,6.76923077 L11.8990385,6.76923077 L11.8990385,9.30769231 L13.5913462,9.30769231 L13.5913462,6.76923077 L16.1826923,6.76923077 L16.9230769,20.3076923 L1.79807692,20.3076923 L2.53846154,6.76923077 Z" id="Shape"></path>
                    </g>
                </g>
            </g>
        </g>
    </g>
</svg>