<?xml version="1.0" encoding="UTF-8"?>
<svg width="31px" height="27px" viewBox="0 0 31 27" version="1.1" xmlns="http://www.w3.org/2000/svg" xmlns:xlink="http://www.w3.org/1999/xlink">
    <!-- Generator: Sketch 42 (36781) - http://www.bohemiancoding.com/sketch -->
    <title>Weixing_000000</title>
    <desc>Created with Sketch.</desc>
    <defs></defs>
    <g id="Page-1" stroke="none" stroke-width="1" fill="none" fill-rule="evenodd">
        <g id="PRODUCT-PAGE" transform="translate(-1114.000000, -2759.000000)" fill-rule="nonzero" fill="#FFFFFF">
            <g id="footer" transform="translate(134.000000, 2669.000000)">
                <g id="公众号按钮" transform="translate(969.000000, 82.000000)">
                    <g id="Weixing_000000" transform="translate(11.000000, 8.000000)">
                        <g id="surface1">
                            <path d="M11.4195651,0 C5.20335438,0 0,4.25935022 0,9.7117371 C0,12.655084 1.54027698,15.1902874 3.92022787,16.9615281 L2.13592083,22.3066465 L7.70663187,18.8662007 C8.85855967,19.2272509 10.1311903,19.4234742 11.4195651,19.4234742 C11.9207456,19.4234742 12.4088057,19.3868462 12.8942427,19.3319032 C14.3610475,22.1732146 17.6856316,24.111899 21.4956519,24.111899 C22.6528273,24.111899 23.7234116,23.8947452 24.7179005,23.5991026 L29.3177389,26.165701 L28.0346124,21.7781518 C29.7664398,20.3444148 30.8999996,18.3481713 30.8999996,16.0745993 C30.8999996,11.9146692 27.2710338,8.59719002 22.6711954,8.10794017 C21.7632983,3.43259673 17.0112686,0 11.4195651,0 Z M11.4195651,1.33954995 C16.3290336,1.33954995 20.3725881,4.25411793 21.2962294,8.04514876 C16.2450662,8.13671973 12.0913042,11.6242588 12.0913042,16.0745993 C12.0913042,16.7574557 12.1988872,17.4167654 12.3851901,18.0446795 C12.0676885,18.0708429 11.7449387,18.0839243 11.4195651,18.0839243 C10.1443107,18.0839243 8.86643178,17.8903178 7.81421559,17.5188016 L7.51245762,17.4141493 L4.58147107,19.2220186 L5.49986406,16.4722782 L5.08002711,16.1897169 C2.74205992,14.6146995 1.34347824,12.354209 1.34347824,9.7117371 C1.34347824,5.1174994 5.81474178,1.33954995 11.4195651,1.33954995 Z M7.38913034,5.35819978 C6.64916805,5.35819978 6.0456521,5.95995107 6.0456521,6.69774973 C6.0456521,7.43554905 6.64916805,8.03729967 7.38913034,8.03729967 C8.12909331,8.03729967 8.73260859,7.43554905 8.73260859,6.69774973 C8.73260859,5.95995107 8.12909331,5.35819978 7.38913034,5.35819978 Z M15.4499998,5.35819978 C14.7100375,5.35819978 14.1065216,5.95995107 14.1065216,6.69774973 C14.1065216,7.43554905 14.7100375,8.03729967 15.4499998,8.03729967 C16.1899628,8.03729967 16.7934781,7.43554905 16.7934781,6.69774973 C16.7934781,5.95995107 16.1899628,5.35819978 15.4499998,5.35819978 Z M21.4956519,9.37684962 C26.0272672,9.37684962 29.5565214,12.4143836 29.5565214,16.0745993 C29.5565214,18.0551447 28.5436651,19.7923735 26.8721887,21.0272711 L26.4969599,21.3072163 L27.1083473,23.397647 L24.9251952,22.1758307 L24.6418052,22.2700178 C23.7024197,22.5839749 22.6292117,22.7723491 21.4956519,22.7723491 C16.9640366,22.7723491 13.4347824,19.7348151 13.4347824,16.0745993 C13.4347824,12.4143836 16.9640366,9.37684962 21.4956519,9.37684962 Z M18.4728259,13.3954995 C17.9349099,13.3954995 17.4652172,13.8638188 17.4652172,14.4001619 C17.4652172,14.936505 17.9349099,15.4048244 18.4728259,15.4048244 C19.0107418,15.4048244 19.4804345,14.936505 19.4804345,14.4001619 C19.4804345,13.8638188 19.0107418,13.3954995 18.4728259,13.3954995 Z M24.518478,13.3954995 C23.980562,13.3954995 23.5108693,13.8638188 23.5108693,14.4001619 C23.5108693,14.936505 23.980562,15.4048244 24.518478,15.4048244 C25.0563939,15.4048244 25.5260866,14.936505 25.5260866,14.4001619 C25.5260866,13.8638188 25.0563939,13.3954995 24.518478,13.3954995 Z" id="Shape"></path>
                        </g>
                    </g>
                </g>
            </g>
        </g>
    </g>
</svg>