<?xml version="1.0" encoding="UTF-8"?>
<svg width="28px" height="26px" viewBox="0 0 28 26" version="1.1" xmlns="http://www.w3.org/2000/svg" xmlns:xlink="http://www.w3.org/1999/xlink">
    <!-- Generator: Sketch 42 (36781) - http://www.bohemiancoding.com/sketch -->
    <title>Weixin_000000</title>
    <desc>Created with Sketch.</desc>
    <defs></defs>
    <g id="Page-1" stroke="none" stroke-width="1" fill="none" fill-rule="evenodd">
        <g id="PRODUCT-PAGE" transform="translate(-134.000000, -67.000000)" stroke-width="0.5" stroke="#555555" fill="#555555" fill-rule="nonzero">
            <g id="Weixin_000000" transform="translate(135.000000, 68.000000)">
                <g id="surface1">
                    <path d="M10.8695652,0 C4.97622283,0 0,4.03362826 0,9.23913043 C0,10.9969435 0.645380435,12.6103946 1.63043478,13.9945652 L1.22282609,17.1535326 L0.985054348,19.0557065 L2.7173913,18.3084239 L5.43478261,17.1875 C6.79347826,17.8583565 8.32201087,18.2829489 9.95244565,18.4103261 C10.7464337,21.6202446 14.1049598,23.9130435 17.9347826,23.9130435 C19.5142663,23.9130435 20.9578804,23.4672217 22.2146739,22.7921196 L23.5054348,23.5394022 L25.3736413,24.5584239 L25.1019022,22.4524457 L24.8641304,20.482337 C25.585938,19.4463315 26.0869565,18.2617185 26.0869565,16.9497283 C26.0869565,14.1686478 24.231488,11.8376359 21.6032609,10.6997283 C21.6966717,10.2241848 21.7391304,9.7486413 21.7391304,9.23913043 C21.7391304,4.03362826 16.7629076,0 10.8695652,0 Z M10.8695652,2.17391304 C15.7820989,2.17391304 19.5652174,5.443275 19.5652174,9.23913043 C19.5652174,9.52785326 19.543988,9.81233043 19.4972826,10.0883152 C18.9835261,9.99915109 18.4740152,9.95244565 17.9347826,9.95244565 C13.8034989,9.95244565 10.2284304,12.6273783 9.81657609,16.236413 C8.38145435,16.0920522 7.06521739,15.6801967 5.94429348,15.0475543 L5.46875,14.8097826 L4.99320652,15.013587 L3.60054348,15.5910326 L3.83831522,13.9266304 L3.87228261,13.451087 L3.60054348,13.111413 C2.68766957,11.9819978 2.17391304,10.6572696 2.17391304,9.23913043 C2.17391304,5.443275 5.95703152,2.17391304 10.8695652,2.17391304 Z M7.13315217,4.51766304 C6.28821304,4.51766304 5.60461957,5.20125652 5.60461957,6.04619565 C5.60461957,6.89113478 6.28821304,7.60869565 7.13315217,7.60869565 C7.9780913,7.60869565 8.66168478,6.89113478 8.66168478,6.04619565 C8.66168478,5.20125652 7.9780913,4.51766304 7.13315217,4.51766304 Z M14.4021739,4.51766304 C13.5572348,4.51766304 12.8396739,5.20125652 12.8396739,6.04619565 C12.8396739,6.89113478 13.5572348,7.60869565 14.4021739,7.60869565 C15.247113,7.60869565 15.9307065,6.89113478 15.9307065,6.04619565 C15.9307065,5.20125652 15.247113,4.51766304 14.4021739,4.51766304 Z M17.9347826,12.1263587 C21.3485054,12.1263587 23.9130435,14.4021739 23.9130435,16.9497283 C23.9130435,17.9135533 23.5648783,18.788213 22.9279891,19.5652174 L22.6222826,19.9388587 L22.6902174,20.3804348 L22.7241848,20.5842391 L22.2146739,20.3125 L21.6711957,20.6861413 C20.6564196,21.3442598 19.361413,21.7391304 17.9347826,21.7391304 C14.5210598,21.7391304 11.9565217,19.4972826 11.9565217,16.9497283 C11.9565217,14.4021739 14.5210598,12.1263587 17.9347826,12.1263587 Z M15.2173913,13.5190217 C14.5762565,13.5190217 14.0285326,14.0327783 14.0285326,14.673913 C14.0285326,15.3150478 14.5762565,15.8288043 15.2173913,15.8288043 C15.8542804,15.8288043 16.3722826,15.3150478 16.3722826,14.673913 C16.3722826,14.0327783 15.8585261,13.5190217 15.2173913,13.5190217 Z M20.6861413,13.5190217 C20.0492533,13.5190217 19.53125,14.0327783 19.53125,14.673913 C19.53125,15.3150478 20.0450065,15.8288043 20.6861413,15.8288043 C21.3272761,15.8288043 21.8410326,15.3150478 21.8410326,14.673913 C21.8410326,14.0327783 21.3272761,13.5190217 20.6861413,13.5190217 Z" id="Shape"></path>
                </g>
            </g>
        </g>
    </g>
</svg>