<?xml version="1.0" encoding="UTF-8"?>
<svg width="26px" height="23px" viewBox="0 0 26 23" version="1.1" xmlns="http://www.w3.org/2000/svg" xmlns:xlink="http://www.w3.org/1999/xlink">
    <!-- Generator: Sketch 42 (36781) - http://www.bohemiancoding.com/sketch -->
    <title>wishlist</title>
    <desc>Created with Sketch.</desc>
    <defs></defs>
    <g id="Page-1" stroke="none" stroke-width="1" fill="none" fill-rule="evenodd">
        <g id="PRODUCT-PAGE" transform="translate(-1182.000000, -67.000000)" stroke="#AB956E" stroke-width="0.75" fill="#AB956E" fill-rule="nonzero">
            <g id="header" transform="translate(-3.000000, 42.000000)">
                <g id="wishlist" transform="translate(1186.000000, 26.000000)">
                    <path d="M17.2781256,2.4 C19.6781256,2.4 21.6,4.3218756 21.6,6.7218756 C21.6,9.1218756 16.9218756,14.4 12,18.4781256 C7.0781256,14.2781256 2.4,9 2.4,6.7218756 C2.4,4.3218756 4.3218756,2.4 6.7218756,2.4 C9.6,2.4 12,6 12,6 C12,6 14.2781256,2.4 17.2781256,2.4 L17.2781256,2.4 Z M17.2781256,0 C15.1218756,0 13.2,1.0781256 12,2.7609372 C10.8,1.0781256 8.8781256,0 6.7218756,0 C3,0 0,3 0,6.7218756 C0,12 12,21.6 12,21.6 C12,21.6 24,12 24,6.7218756 C24,3 21,0 17.2781256,0 Z" id="Shape"></path>
                </g>
            </g>
        </g>
    </g>
</svg>